<?xml version="1.0" encoding="UTF-8" standalone="no"?>
<!DOCTYPE svg PUBLIC "-//W3C//DTD SVG 1.1//EN"
 "http://www.w3.org/Graphics/SVG/1.1/DTD/svg11.dtd">
<!-- Generated by graphviz version 2.43.0 (0)
 -->
<!-- Title: Tree Pages: 1 -->
<svg width="922pt" height="557pt"
 viewBox="0.00 0.00 922.00 557.42" xmlns="http://www.w3.org/2000/svg" xmlns:xlink="http://www.w3.org/1999/xlink">
<g id="graph0" class="graph" transform="scale(1 1) rotate(0) translate(4 553.42)">
<title>Tree</title>
<polygon fill="white" stroke="transparent" points="-4,4 -4,-553.42 918,-553.42 918,4 -4,4"/>
<!-- 0 -->
<g id="node1" class="node">
<title>0</title>
<path fill="#fffdfc" stroke="black" d="M545.5,-514C545.5,-514 349.5,-514 349.5,-514 343.5,-514 337.5,-508 337.5,-502 337.5,-502 337.5,-458 337.5,-458 337.5,-452 343.5,-446 349.5,-446 349.5,-446 545.5,-446 545.5,-446 551.5,-446 557.5,-452 557.5,-458 557.5,-458 557.5,-502 557.5,-502 557.5,-508 551.5,-514 545.5,-514"/>
<text text-anchor="start" x="345.5" y="-498.8" font-family="Helvetica,sans-Serif" font-size="14.00">log_installed_capacity ≤ 9.41</text>
<text text-anchor="start" x="350.5" y="-483.8" font-family="Helvetica,sans-Serif" font-size="14.00">squared_error = 805354.01</text>
<text text-anchor="start" x="376.5" y="-468.8" font-family="Helvetica,sans-Serif" font-size="14.00">samples = 1531020</text>
<text text-anchor="start" x="393" y="-453.8" font-family="Helvetica,sans-Serif" font-size="14.00">value = 254.05</text>
</g>
<!-- 1 -->
<g id="node2" class="node">
<title>1</title>
<path fill="#fffefe" stroke="black" d="M424.5,-301C424.5,-301 228.5,-301 228.5,-301 222.5,-301 216.5,-295 216.5,-289 216.5,-289 216.5,-245 216.5,-245 216.5,-239 222.5,-233 228.5,-233 228.5,-233 424.5,-233 424.5,-233 430.5,-233 436.5,-239 436.5,-245 436.5,-245 436.5,-289 436.5,-289 436.5,-295 430.5,-301 424.5,-301"/>
<text text-anchor="start" x="224.5" y="-285.8" font-family="Helvetica,sans-Serif" font-size="14.00">log_installed_capacity ≤ 8.59</text>
<text text-anchor="start" x="229.5" y="-270.8" font-family="Helvetica,sans-Serif" font-size="14.00">squared_error = 271059.43</text>
<text text-anchor="start" x="255.5" y="-255.8" font-family="Helvetica,sans-Serif" font-size="14.00">samples = 1503570</text>
<text text-anchor="start" x="272" y="-240.8" font-family="Helvetica,sans-Serif" font-size="14.00">value = 186.89</text>
</g>
<!-- 0&#45;&gt;1 -->
<g id="edge1" class="edge">
<title>0&#45;&gt;1</title>
<path fill="none" stroke="black" d="M428.33,-445.57C407.26,-408.84 373.4,-349.78 350.56,-309.96"/>
<polygon fill="black" stroke="black" points="353.59,-308.21 345.58,-301.28 347.52,-311.69 353.59,-308.21"/>
<text text-anchor="middle" x="339.04" y="-321.71" font-family="Helvetica,sans-Serif" font-size="14.00">True</text>
</g>
<!-- 2 -->
<g id="node5" class="node">
<title>2</title>
<path fill="#f1bd97" stroke="black" d="M670.5,-301C670.5,-301 466.5,-301 466.5,-301 460.5,-301 454.5,-295 454.5,-289 454.5,-289 454.5,-245 454.5,-245 454.5,-239 460.5,-233 466.5,-233 466.5,-233 670.5,-233 670.5,-233 676.5,-233 682.5,-239 682.5,-245 682.5,-245 682.5,-289 682.5,-289 682.5,-295 676.5,-301 670.5,-301"/>
<text text-anchor="start" x="492.5" y="-285.8" font-family="Helvetica,sans-Serif" font-size="14.00">is_consumption ≤ 1.5</text>
<text text-anchor="start" x="462.5" y="-270.8" font-family="Helvetica,sans-Serif" font-size="14.00">squared_error = 16291451.99</text>
<text text-anchor="start" x="506.5" y="-255.8" font-family="Helvetica,sans-Serif" font-size="14.00">samples = 27450</text>
<text text-anchor="start" x="509.5" y="-240.8" font-family="Helvetica,sans-Serif" font-size="14.00">value = 3932.74</text>
</g>
<!-- 0&#45;&gt;2 -->
<g id="edge4" class="edge">
<title>0&#45;&gt;2</title>
<path fill="none" stroke="black" d="M466.67,-445.57C487.74,-408.84 521.6,-349.78 544.44,-309.96"/>
<polygon fill="black" stroke="black" points="547.48,-311.69 549.42,-301.28 541.41,-308.21 547.48,-311.69"/>
<text text-anchor="middle" x="555.96" y="-321.71" font-family="Helvetica,sans-Serif" font-size="14.00">False</text>
</g>
<!-- 5 -->
<g id="node3" class="node">
<title>5</title>
<path fill="#ffffff" stroke="black" d="M189,-80.5C189,-80.5 12,-80.5 12,-80.5 6,-80.5 0,-74.5 0,-68.5 0,-68.5 0,-39.5 0,-39.5 0,-33.5 6,-27.5 12,-27.5 12,-27.5 189,-27.5 189,-27.5 195,-27.5 201,-33.5 201,-39.5 201,-39.5 201,-68.5 201,-68.5 201,-74.5 195,-80.5 189,-80.5"/>
<text text-anchor="start" x="8" y="-65.3" font-family="Helvetica,sans-Serif" font-size="14.00">squared_error = 88383.01</text>
<text text-anchor="start" x="29.5" y="-50.3" font-family="Helvetica,sans-Serif" font-size="14.00">samples = 1452798</text>
<text text-anchor="start" x="46" y="-35.3" font-family="Helvetica,sans-Serif" font-size="14.00">value = 140.62</text>
</g>
<!-- 1&#45;&gt;5 -->
<g id="edge2" class="edge">
<title>1&#45;&gt;5</title>
<path fill="none" stroke="black" d="M290.94,-232.8C248.46,-193.14 177.85,-127.21 135.58,-87.75"/>
<polygon fill="black" stroke="black" points="137.73,-84.97 128.03,-80.71 132.95,-90.09 137.73,-84.97"/>
</g>
<!-- 6 -->
<g id="node4" class="node">
<title>6</title>
<path fill="#fae7d9" stroke="black" d="M426,-80.5C426,-80.5 231,-80.5 231,-80.5 225,-80.5 219,-74.5 219,-68.5 219,-68.5 219,-39.5 219,-39.5 219,-33.5 225,-27.5 231,-27.5 231,-27.5 426,-27.5 426,-27.5 432,-27.5 438,-33.5 438,-39.5 438,-39.5 438,-68.5 438,-68.5 438,-74.5 432,-80.5 426,-80.5"/>
<text text-anchor="start" x="227" y="-65.3" font-family="Helvetica,sans-Serif" font-size="14.00">squared_error = 3683792.35</text>
<text text-anchor="start" x="266.5" y="-50.3" font-family="Helvetica,sans-Serif" font-size="14.00">samples = 50772</text>
<text text-anchor="start" x="269.5" y="-35.3" font-family="Helvetica,sans-Serif" font-size="14.00">value = 1510.95</text>
</g>
<!-- 1&#45;&gt;6 -->
<g id="edge3" class="edge">
<title>1&#45;&gt;6</title>
<path fill="none" stroke="black" d="M326.82,-232.57C327.18,-193.84 327.79,-130.31 328.16,-90.67"/>
<polygon fill="black" stroke="black" points="331.66,-90.68 328.26,-80.64 324.66,-90.61 331.66,-90.68"/>
</g>
<!-- 3 -->
<g id="node6" class="node">
<title>3</title>
<path fill="#fef9f5" stroke="black" d="M665,-80.5C665,-80.5 470,-80.5 470,-80.5 464,-80.5 458,-74.5 458,-68.5 458,-68.5 458,-39.5 458,-39.5 458,-33.5 464,-27.5 470,-27.5 470,-27.5 665,-27.5 665,-27.5 671,-27.5 677,-33.5 677,-39.5 677,-39.5 677,-68.5 677,-68.5 677,-74.5 671,-80.5 665,-80.5"/>
<text text-anchor="start" x="466" y="-65.3" font-family="Helvetica,sans-Serif" font-size="14.00">squared_error = 1504155.83</text>
<text text-anchor="start" x="505.5" y="-50.3" font-family="Helvetica,sans-Serif" font-size="14.00">samples = 13725</text>
<text text-anchor="start" x="513" y="-35.3" font-family="Helvetica,sans-Serif" font-size="14.00">value = 492.46</text>
</g>
<!-- 2&#45;&gt;3 -->
<g id="edge5" class="edge">
<title>2&#45;&gt;3</title>
<path fill="none" stroke="black" d="M568.34,-232.57C568.16,-193.84 567.86,-130.31 567.67,-90.67"/>
<polygon fill="black" stroke="black" points="571.17,-90.63 567.62,-80.64 564.17,-90.66 571.17,-90.63"/>
</g>
<!-- 4 -->
<g id="node7" class="node">
<title>4</title>
<path fill="#e58139" stroke="black" d="M902,-80.5C902,-80.5 707,-80.5 707,-80.5 701,-80.5 695,-74.5 695,-68.5 695,-68.5 695,-39.5 695,-39.5 695,-33.5 701,-27.5 707,-27.5 707,-27.5 902,-27.5 902,-27.5 908,-27.5 914,-33.5 914,-39.5 914,-39.5 914,-68.5 914,-68.5 914,-74.5 908,-80.5 902,-80.5"/>
<text text-anchor="start" x="703" y="-65.3" font-family="Helvetica,sans-Serif" font-size="14.00">squared_error = 7407610.76</text>
<text text-anchor="start" x="742.5" y="-50.3" font-family="Helvetica,sans-Serif" font-size="14.00">samples = 13725</text>
<text text-anchor="start" x="745.5" y="-35.3" font-family="Helvetica,sans-Serif" font-size="14.00">value = 7373.03</text>
</g>
<!-- 2&#45;&gt;4 -->
<g id="edge6" class="edge">
<title>2&#45;&gt;4</title>
<path fill="none" stroke="black" d="M605.63,-232.8C650.09,-193.06 724.03,-126.94 768.14,-87.51"/>
<polygon fill="black" stroke="black" points="770.63,-89.98 775.75,-80.71 765.96,-84.76 770.63,-89.98"/>
</g>
</g>
</svg>
